<svg version="1.1" xmlns="http://www.w3.org/2000/svg" viewBox="0 0 273.9534110055787 352.59704796214487" width="547.9068220111574" height="705.1940959242897">
  <!-- svg-source:excalidraw -->
  
  <defs>
    <style class="style-fonts">
      @font-face {
        font-family: "Virgil";
        src: url("https://excalidraw.com/Virgil.woff2");
      }
      @font-face {
        font-family: "Cascadia";
        src: url("https://excalidraw.com/Cascadia.woff2");
      }
    </style>
  </defs>
  <rect x="0" y="0" width="273.9534110055787" height="352.59704796214487" fill="#ffffff"></rect><g transform="translate(10 330.3089796876815) rotate(0 126.97670550278934 -154.01045570660904)" stroke="none"><path fill="#000000" d="M -1.59,0 Q -1.59,0 -1.65,-1.64 -1.71,-3.29 -1.66,-6.58 -1.60,-9.88 -1.56,-14.81 -1.52,-19.74 -1.49,-25.84 -1.46,-31.94 -1.44,-44.42 -1.42,-56.91 -1.41,-72.34 -1.39,-87.77 -1.38,-101.87 -1.37,-115.96 -1.36,-124.08 -1.35,-132.19 -1.11,-142.71 -0.87,-153.24 -0.29,-160.11 0.28,-166.97 2.18,-176.31 4.09,-185.64 6.32,-193.39 8.55,-201.15 10.91,-208.45 13.28,-215.74 16.18,-222.89 19.08,-230.03 23.64,-238.30 28.20,-246.56 31.31,-251.72 34.43,-256.87 38.86,-262.42 43.28,-267.97 49.89,-275.05 56.49,-282.12 62.63,-287.52 68.77,-292.91 73.04,-296.15 77.32,-299.40 85.33,-303.65 93.34,-307.90 101.25,-311.12 109.15,-314.34 114.18,-315.95 119.21,-317.56 127.56,-318.73 135.91,-319.91 141.09,-320.40 146.27,-320.89 153.68,-321.10 161.10,-321.31 166.62,-321.16 172.14,-321.02 176.89,-320.48 181.63,-319.94 186.79,-318.52 191.94,-317.09 196.99,-315.06 202.03,-313.02 206.58,-310.48 211.12,-307.95 214.97,-305.19 218.82,-302.43 223.38,-296.68 227.95,-290.93 231.31,-284.67 234.67,-278.42 237.05,-271.95 239.43,-265.48 241.15,-259.18 242.87,-252.88 244.55,-243.33 246.23,-233.79 247.64,-224.56 249.06,-215.34 250.13,-208.60 251.20,-201.86 252.13,-191.89 253.07,-181.92 253.46,-175.32 253.86,-168.72 254.26,-158.85 254.67,-148.97 254.84,-141.47 255.01,-133.97 255.08,-123.48 255.15,-112.99 254.48,-101.42 253.80,-89.86 253.28,-83.53 252.75,-77.21 252.06,-70.97 251.36,-64.74 251.07,-61.64 250.78,-58.54 250.17,-54.82 249.57,-51.10 249.32,-48.86 249.07,-46.62 249.09,-45.42 249.12,-44.23 248.99,-41.98 248.87,-39.72 248.88,-38.26 248.90,-36.80 248.64,-35.77 248.39,-34.73 248.40,-33.45 248.41,-32.17 248.37,-30.70 248.33,-29.24 248.24,-27.43 248.15,-25.62 247.77,-23.10 247.39,-20.57 247.31,-19.10 247.24,-17.63 247.24,-16.33 247.24,-15.02 247.33,-13.42 247.43,-11.82 247.51,-10.10 247.59,-8.37 247.57,-6.91 247.54,-5.44 247.51,-3.87 247.48,-2.31 247.50,-1.17 247.53,-0.04 247.61,1.21 247.70,2.47 247.76,3.94 247.82,5.41 247.88,8.85 247.93,12.28 247.85,12.76 247.77,13.24 247.54,13.67 247.32,14.09 246.97,14.43 246.62,14.76 246.18,14.96 245.74,15.16 245.26,15.22 244.78,15.27 244.30,15.17 243.83,15.06 243.42,14.81 243.00,14.56 242.69,14.19 242.37,13.82 242.20,13.38 242.02,12.93 241.99,12.44 241.96,11.96 242.09,11.49 242.22,11.03 242.49,10.63 242.77,10.23 243.15,9.93 243.54,9.64 244.00,9.49 244.45,9.33 244.94,9.33 245.42,9.33 245.88,9.49 246.34,9.64 246.72,9.93 247.11,10.23 247.38,10.63 247.65,11.03 247.78,11.49 247.91,11.96 247.88,12.44 247.86,12.93 247.68,13.38 247.50,13.83 247.19,14.19 246.87,14.56 246.46,14.81 246.04,15.06 245.57,15.17 245.10,15.27 244.62,15.22 244.14,15.16 243.70,14.96 243.26,14.76 242.91,14.42 242.56,14.09 242.33,13.66 242.10,13.24 242.02,12.76 241.95,12.28 241.95,12.28 241.95,12.28 242.00,8.85 242.05,5.41 242.12,3.94 242.18,2.47 242.26,1.21 242.34,-0.04 242.37,-1.17 242.40,-2.31 242.37,-3.88 242.33,-5.44 242.31,-6.91 242.29,-8.38 242.38,-10.13 242.47,-11.87 242.62,-13.52 242.76,-15.16 242.85,-16.54 242.94,-17.92 243.06,-19.46 243.19,-20.99 243.29,-23.31 243.38,-25.64 243.31,-27.47 243.24,-29.31 243.24,-30.89 243.23,-32.46 243.55,-34.36 243.87,-36.27 244.25,-37.38 244.62,-38.50 244.83,-39.55 245.04,-40.59 245.51,-42.55 245.99,-44.51 246.23,-45.71 246.46,-46.91 246.72,-49.22 246.98,-51.52 247.57,-55.15 248.16,-58.79 248.46,-61.91 248.75,-65.03 249.44,-71.23 250.14,-77.42 250.66,-83.72 251.18,-90.01 251.85,-101.49 252.53,-112.97 252.45,-123.44 252.38,-133.91 252.21,-141.39 252.04,-148.87 251.64,-158.72 251.24,-168.56 250.84,-175.12 250.45,-181.67 249.53,-191.56 248.61,-201.45 247.54,-208.19 246.46,-214.94 245.05,-224.14 243.64,-233.34 241.99,-242.76 240.33,-252.19 238.65,-258.38 236.96,-264.58 234.66,-270.88 232.35,-277.18 229.11,-283.25 225.88,-289.31 221.57,-294.81 217.27,-300.32 213.55,-302.99 209.84,-305.66 205.44,-308.12 201.05,-310.59 196.14,-312.58 191.24,-314.56 186.28,-315.95 181.33,-317.33 176.70,-317.86 172.07,-318.39 166.62,-318.54 161.17,-318.68 153.84,-318.48 146.51,-318.27 141.39,-317.79 136.27,-317.31 128.14,-316.18 120.00,-315.06 115.07,-313.48 110.14,-311.91 102.36,-308.74 94.57,-305.57 86.74,-301.44 78.90,-297.30 74.70,-294.12 70.50,-290.93 64.46,-285.63 58.42,-280.33 51.88,-273.33 45.34,-266.33 41.01,-260.92 36.68,-255.51 33.59,-250.40 30.51,-245.29 26.02,-237.16 21.53,-229.03 18.66,-221.98 15.79,-214.93 13.45,-207.67 11.10,-200.41 8.90,-192.76 6.69,-185.11 4.82,-175.93 2.94,-166.74 2.37,-159.96 1.81,-153.18 1.58,-142.68 1.35,-132.19 1.36,-124.08 1.37,-115.96 1.38,-101.87 1.39,-87.77 1.41,-72.34 1.42,-56.91 1.44,-44.42 1.46,-31.94 1.49,-25.84 1.52,-19.74 1.56,-14.81 1.60,-9.88 1.66,-6.58 1.71,-3.29 1.65,-1.64 1.59,0 1.57,0.19 1.55,0.38 1.48,0.56 1.41,0.74 1.30,0.90 1.19,1.05 1.05,1.18 0.90,1.31 0.73,1.40 0.56,1.49 0.37,1.54 0.19,1.58 -0.00,1.58 -0.19,1.58 -0.37,1.54 -0.56,1.49 -0.73,1.40 -0.90,1.31 -1.05,1.18 -1.19,1.05 -1.30,0.90 -1.41,0.74 -1.48,0.56 -1.55,0.38 -1.57,0.19 -1.59,-0.00 -1.59,-0.00 L -1.59,0 Z"></path></g><g transform="translate(64.06750040763939 151.7223874321455) rotate(0 81.92045516308985 3.6864204823390594)" stroke="none"><path fill="#000000" d="M 0,-1.56 Q 0,-1.56 2.82,-1.52 5.65,-1.49 10.15,-1.46 14.64,-1.44 23.86,-1.42 33.07,-1.40 39.81,-1.39 46.55,-1.38 58.13,-1.37 69.71,-1.36 80.05,-1.35 90.39,-1.34 98.32,-1.34 106.24,-1.33 113.38,-1.33 120.52,-1.33 128.09,-0.62 135.66,0.09 139.58,0.63 143.51,1.17 147.09,1.88 150.67,2.58 153.35,3.12 156.03,3.65 157.92,4.07 159.81,4.49 161.60,4.38 163.38,4.27 163.55,4.33 163.72,4.40 163.87,4.50 164.02,4.60 164.14,4.74 164.26,4.88 164.35,5.04 164.43,5.20 164.47,5.38 164.52,5.55 164.52,5.73 164.51,5.92 164.47,6.09 164.43,6.27 164.34,6.43 164.26,6.59 164.13,6.73 164.01,6.86 163.86,6.97 163.71,7.07 163.54,7.13 163.37,7.20 163.19,7.22 163.01,7.24 162.83,7.22 162.65,7.19 162.14,6.17 161.62,5.15 161.75,4.94 161.88,4.74 162.07,4.58 162.26,4.43 162.49,4.34 162.71,4.25 162.96,4.24 163.20,4.23 163.44,4.30 163.67,4.37 163.87,4.51 164.07,4.65 164.22,4.85 164.36,5.04 164.43,5.27 164.51,5.51 164.51,5.75 164.50,6.00 164.42,6.23 164.34,6.46 164.19,6.65 164.04,6.84 163.83,6.97 163.63,7.11 163.39,7.17 163.16,7.23 162.91,7.22 162.67,7.20 162.45,7.10 162.22,7.01 162.04,6.85 161.85,6.69 161.73,6.48 161.61,6.27 161.56,6.03 161.51,5.79 161.54,5.55 161.57,5.30 161.67,5.08 161.78,4.86 161.95,4.69 162.12,4.51 162.34,4.40 162.56,4.29 162.80,4.26 163.04,4.22 163.28,4.26 163.52,4.31 163.73,4.42 163.95,4.54 164.11,4.72 164.28,4.90 164.38,5.12 164.48,5.35 164.50,5.59 164.52,5.83 163.95,5.05 163.38,4.27 163.55,4.33 163.72,4.40 163.87,4.50 164.02,4.60 164.14,4.74 164.26,4.88 164.35,5.04 164.43,5.20 164.47,5.38 164.52,5.55 164.52,5.73 164.51,5.92 164.47,6.09 164.43,6.27 164.34,6.43 164.26,6.59 164.13,6.73 164.01,6.86 163.86,6.97 163.71,7.07 163.54,7.13 163.37,7.20 163.19,7.22 163.01,7.24 162.83,7.22 162.65,7.19 160.89,7.22 159.12,7.24 157.32,6.74 155.52,6.24 152.84,5.70 150.15,5.17 146.65,4.48 143.15,3.79 139.28,3.26 135.41,2.73 127.96,2.03 120.52,1.33 113.38,1.33 106.24,1.33 98.32,1.34 90.39,1.34 80.05,1.35 69.71,1.36 58.13,1.37 46.55,1.38 39.81,1.39 33.07,1.40 23.86,1.42 14.64,1.44 10.15,1.46 5.65,1.49 2.82,1.52 0,1.56 -0.18,1.53 -0.37,1.51 -0.54,1.45 -0.72,1.38 -0.88,1.27 -1.03,1.16 -1.16,1.02 -1.28,0.88 -1.37,0.72 -1.46,0.55 -1.50,0.37 -1.55,0.18 -1.55,-0.00 -1.55,-0.18 -1.50,-0.37 -1.46,-0.55 -1.37,-0.72 -1.28,-0.88 -1.16,-1.02 -1.03,-1.16 -0.88,-1.27 -0.72,-1.38 -0.54,-1.45 -0.37,-1.51 -0.18,-1.53 0.00,-1.56 0.00,-1.56 L 0,-1.56 Z"></path></g><g transform="translate(67.34431861416294 153.36079653540733) rotate(0 86.42608019705983 -49.97147764948484)" stroke="none"><path fill="#000000" d="M -1.56,0 Q -1.56,0 -1.53,-2.11 -1.49,-4.23 -1.47,-7.49 -1.44,-10.75 -1.42,-16.13 -1.41,-21.52 -1.39,-25.23 -1.38,-28.93 -0.66,-34.59 0.05,-40.26 1.32,-44.84 2.59,-49.43 6.25,-55.96 9.90,-62.49 11.91,-65.91 13.92,-69.34 16.44,-72.96 18.97,-76.58 21.49,-79.55 24.00,-82.53 26.25,-84.98 28.50,-87.42 31.38,-89.92 34.27,-92.41 37.43,-94.45 40.60,-96.48 45.08,-98.32 49.56,-100.16 54.81,-101.42 60.06,-102.68 63.44,-103.44 66.82,-104.20 72.33,-104.77 77.84,-105.34 82.30,-105.58 86.77,-105.82 90.79,-105.92 94.81,-106.02 98.40,-106.06 102.00,-106.10 104.76,-105.88 107.52,-105.66 110.35,-105.33 113.17,-105.00 116.64,-103.64 120.11,-102.29 122.27,-101.24 124.43,-100.18 126.79,-98.78 129.15,-97.37 131.87,-95.07 134.59,-92.77 135.85,-91.30 137.10,-89.83 138.96,-87.58 140.83,-85.33 141.92,-84.21 143.02,-83.08 144.44,-80.81 145.86,-78.55 146.93,-77.24 147.99,-75.94 149.62,-73.39 151.24,-70.85 152.85,-68.37 154.46,-65.89 156.10,-62.90 157.75,-59.91 159.85,-56.06 161.94,-52.22 163.08,-49.84 164.22,-47.47 165.62,-44.85 167.02,-42.23 167.89,-40.10 168.75,-37.96 169.78,-36.22 170.80,-34.49 171.54,-32.16 172.29,-29.84 172.89,-28.23 173.49,-26.63 173.83,-25.13 174.18,-23.63 174.51,-21.89 174.84,-20.16 175.00,-18.81 175.16,-17.47 175.27,-16.09 175.38,-14.72 175.13,-13.61 174.87,-12.49 174.46,-11.47 174.05,-10.45 173.32,-9.33 172.58,-8.22 171.83,-7.38 171.07,-6.53 170.27,-5.43 169.46,-4.33 168.03,-2.91 166.60,-1.49 165.92,-0.53 165.24,0.42 164.87,1.57 164.50,2.73 163.24,5.04 161.97,7.36 161.52,7.65 161.07,7.94 160.55,8.07 160.04,8.21 159.50,8.17 158.97,8.13 158.47,7.92 157.98,7.71 157.58,7.36 157.18,7.01 156.91,6.54 156.64,6.08 156.54,5.55 156.43,5.03 156.50,4.50 156.57,3.96 156.80,3.48 157.04,3.00 157.41,2.62 157.79,2.24 158.26,2.00 158.74,1.75 159.27,1.68 159.80,1.60 160.33,1.70 160.86,1.79 161.32,2.05 161.79,2.31 162.15,2.71 162.51,3.10 162.73,3.59 162.95,4.08 162.99,4.62 163.04,5.15 162.92,5.67 162.79,6.19 162.51,6.65 162.22,7.10 161.81,7.44 161.39,7.78 160.89,7.97 160.39,8.16 159.85,8.18 159.32,8.19 158.81,8.04 158.29,7.89 157.86,7.58 157.42,7.27 157.10,6.84 156.79,6.41 156.62,5.89 156.46,5.38 156.47,4.85 156.48,4.31 156.66,3.81 156.85,3.30 157.18,2.88 157.51,2.46 157.51,2.46 157.51,2.46 157.96,1.72 158.41,0.98 158.99,-0.45 159.57,-1.88 160.46,-3.19 161.34,-4.50 162.91,-6.04 164.49,-7.58 165.67,-9.01 166.85,-10.43 167.82,-11.32 168.79,-12.21 169.55,-13.50 170.31,-14.79 170.41,-16.11 170.51,-17.42 170.62,-18.69 170.73,-19.95 170.79,-21.53 170.85,-23.10 170.75,-24.41 170.65,-25.71 170.19,-27.38 169.74,-29.04 169.10,-31.09 168.47,-33.14 167.37,-35.04 166.26,-36.95 165.45,-38.94 164.63,-40.94 163.19,-43.60 161.74,-46.27 160.62,-48.57 159.49,-50.87 157.37,-54.69 155.25,-58.52 153.63,-61.39 152.00,-64.26 150.34,-66.71 148.68,-69.16 147.05,-71.57 145.42,-73.97 144.37,-75.44 143.32,-76.91 141.97,-78.96 140.62,-81.00 139.64,-82.26 138.67,-83.52 136.75,-85.78 134.83,-88.04 133.86,-89.41 132.88,-90.78 130.34,-92.95 127.79,-95.12 125.53,-96.47 123.27,-97.82 121.20,-98.83 119.14,-99.85 115.99,-101.12 112.84,-102.40 110.08,-102.72 107.31,-103.05 104.67,-103.26 102.03,-103.48 98.45,-103.43 94.87,-103.39 90.89,-103.29 86.91,-103.19 82.51,-102.96 78.11,-102.72 72.75,-102.18 67.39,-101.63 64.03,-100.87 60.67,-100.12 55.61,-98.92 50.55,-97.72 46.28,-95.99 42.01,-94.26 39.00,-92.34 35.99,-90.41 33.22,-88.02 30.44,-85.63 28.23,-83.23 26.02,-80.82 23.58,-77.94 21.15,-75.05 18.68,-71.52 16.22,-68.00 14.23,-64.58 12.24,-61.17 8.72,-54.93 5.19,-48.69 3.98,-44.30 2.76,-39.91 2.07,-34.42 1.38,-28.93 1.39,-25.22 1.41,-21.52 1.42,-16.13 1.44,-10.75 1.47,-7.49 1.49,-4.23 1.53,-2.11 1.56,0 1.53,0.18 1.51,0.37 1.45,0.55 1.38,0.72 1.27,0.88 1.16,1.03 1.02,1.16 0.88,1.28 0.72,1.37 0.55,1.46 0.37,1.50 0.18,1.55 -0.00,1.55 -0.18,1.55 -0.37,1.50 -0.55,1.46 -0.72,1.37 -0.88,1.28 -1.02,1.16 -1.16,1.03 -1.27,0.88 -1.38,0.72 -1.45,0.54 -1.51,0.37 -1.53,0.18 -1.56,-0.00 -1.56,-0.00 L -1.56,0 Z"></path></g><g transform="translate(95.19727336961353 293.44477486429105) rotate(0 33.587386616866866 0)" stroke="none"><path fill="#000000" d="M 0,-1.62 Q 0,-1.62 3.53,-1.57 7.06,-1.53 9.50,-1.50 11.95,-1.47 14.87,-1.45 17.79,-1.43 21.39,-1.41 24.99,-1.39 27.22,-1.38 29.46,-1.37 32.53,-1.36 35.60,-1.35 37.37,-1.42 39.15,-1.49 42.26,-1.46 45.37,-1.44 48.10,-1.42 50.84,-1.40 53.65,-1.39 56.46,-1.38 58.36,-1.42 60.26,-1.46 62.01,-1.52 63.76,-1.57 65.47,-1.67 67.17,-1.78 67.45,-1.73 67.74,-1.68 67.99,-1.55 68.25,-1.41 68.45,-1.20 68.64,-0.99 68.77,-0.73 68.89,-0.47 68.92,-0.18 68.95,0.09 68.89,0.37 68.82,0.65 68.68,0.90 68.53,1.15 68.31,1.33 68.09,1.52 67.82,1.63 67.55,1.73 67.26,1.75 66.98,1.77 66.70,1.69 66.42,1.61 66.18,1.45 65.94,1.29 65.77,1.06 65.60,0.83 65.50,0.56 65.41,0.28 65.41,-0.00 65.41,-0.28 65.50,-0.56 65.60,-0.83 65.77,-1.06 65.94,-1.29 66.18,-1.45 66.42,-1.61 66.70,-1.69 66.98,-1.77 67.27,-1.75 67.55,-1.73 67.82,-1.63 68.09,-1.52 68.31,-1.33 68.53,-1.15 68.68,-0.90 68.82,-0.65 68.89,-0.37 68.95,-0.09 68.92,0.19 68.89,0.47 68.77,0.73 68.64,1.00 68.45,1.20 68.25,1.41 67.99,1.55 67.74,1.68 67.45,1.73 67.17,1.78 67.17,1.78 67.17,1.78 65.47,1.67 63.76,1.57 62.01,1.52 60.26,1.46 58.36,1.42 56.46,1.38 53.65,1.39 50.84,1.40 48.10,1.42 45.37,1.44 42.26,1.46 39.15,1.49 37.37,1.42 35.60,1.35 32.53,1.36 29.46,1.37 27.22,1.38 24.99,1.39 21.39,1.41 17.79,1.43 14.87,1.45 11.95,1.47 9.50,1.50 7.06,1.53 3.53,1.57 0,1.62 -0.19,1.59 -0.38,1.57 -0.57,1.50 -0.75,1.43 -0.91,1.32 -1.07,1.21 -1.20,1.06 -1.33,0.92 -1.42,0.74 -1.51,0.57 -1.56,0.38 -1.60,0.19 -1.60,-0.00 -1.60,-0.19 -1.56,-0.38 -1.51,-0.57 -1.42,-0.74 -1.33,-0.92 -1.20,-1.06 -1.07,-1.21 -0.91,-1.32 -0.75,-1.43 -0.57,-1.50 -0.38,-1.57 -0.19,-1.59 0.00,-1.62 0.00,-1.62 L 0,-1.62 Z"></path></g><g transform="translate(118.9542053669096 309.82886589690895) rotate(0 2.048011379077252 0)" stroke="none"><path fill="#000000" d="M 0,-2.31 Q 0,-2.31 0,-2.36 0,-2.40 0.28,-2.36 0.57,-2.33 0.84,-2.23 1.11,-2.12 1.35,-1.96 1.59,-1.79 1.78,-1.58 1.97,-1.36 2.11,-1.10 2.24,-0.85 2.31,-0.57 2.38,-0.28 2.38,0.00 2.38,0.28 2.31,0.57 2.24,0.85 2.11,1.10 1.97,1.36 1.78,1.58 1.59,1.79 1.35,1.96 1.11,2.12 0.84,2.23 0.57,2.33 0.28,2.36 -0.00,2.40 -0.38,2.33 -0.76,2.27 -1.11,2.09 -1.45,1.91 -1.72,1.63 -1.98,1.34 -2.15,0.99 -2.31,0.64 -2.35,0.25 -2.39,-0.13 -2.31,-0.50 -2.23,-0.88 -2.03,-1.22 -1.83,-1.55 -1.53,-1.80 -1.23,-2.05 -0.87,-2.20 -0.51,-2.34 -0.12,-2.36 0.26,-2.38 0.63,-2.28 1.00,-2.18 1.33,-1.96 1.65,-1.74 1.88,-1.43 2.12,-1.12 2.24,-0.75 2.37,-0.38 2.37,0.00 2.37,0.38 2.24,0.75 2.12,1.12 1.88,1.43 1.65,1.74 1.33,1.96 1.00,2.18 0.63,2.28 0.25,2.38 -0.12,2.36 -0.51,2.34 -0.87,2.20 -1.23,2.05 -1.53,1.80 -1.83,1.55 -2.03,1.22 -2.23,0.88 -2.31,0.50 -2.39,0.12 -2.35,-0.25 -2.31,-0.64 -2.15,-0.99 -1.98,-1.34 -1.72,-1.63 -1.45,-1.91 -1.11,-2.09 -0.76,-2.27 -0.38,-2.33 0.00,-2.40 0.00,-2.40 -0.00,-2.40 0.28,-2.36 0.57,-2.33 0.84,-2.23 1.11,-2.12 1.35,-1.96 1.59,-1.79 1.78,-1.58 1.97,-1.36 2.11,-1.10 2.24,-0.85 2.31,-0.57 2.38,-0.28 2.38,-0.00 2.38,0.28 2.31,0.57 2.24,0.85 2.11,1.10 1.97,1.36 1.78,1.58 1.59,1.79 1.35,1.96 1.11,2.12 0.84,2.23 0.57,2.33 0.28,2.36 0,2.40 0,2.36 0,2.31 -0.27,2.28 -0.55,2.25 -0.81,2.15 -1.07,2.05 -1.30,1.89 -1.53,1.73 -1.72,1.52 -1.90,1.31 -2.03,1.06 -2.16,0.82 -2.23,0.55 -2.30,0.27 -2.30,-0.00 -2.30,-0.27 -2.23,-0.55 -2.16,-0.82 -2.03,-1.06 -1.90,-1.31 -1.72,-1.52 -1.53,-1.73 -1.30,-1.89 -1.07,-2.05 -0.81,-2.15 -0.55,-2.25 -0.27,-2.28 0.00,-2.31 0.00,-2.31 L 0,-2.31 Z"></path></g><g transform="translate(120.59261447017138 309.82886589690895) rotate(0 13.926477377725291 -0.8192045516308895)" stroke="none"><path fill="#000000" d="M 0,-2.25 Q 0,-2.25 1.64,-2.23 3.29,-2.22 5.17,-2.17 7.05,-2.11 8.79,-2.09 10.53,-2.08 12.45,-2.03 14.36,-1.98 16.59,-1.89 18.82,-1.80 20.00,-1.89 21.18,-1.97 22.81,-2.12 24.43,-2.27 25.73,-3.18 27.03,-4.09 27.32,-4.06 27.62,-4.02 27.90,-3.92 28.17,-3.81 28.42,-3.64 28.66,-3.48 28.86,-3.25 29.05,-3.03 29.19,-2.77 29.33,-2.51 29.40,-2.22 29.47,-1.93 29.47,-1.63 29.47,-1.34 29.40,-1.05 29.33,-0.76 29.19,-0.50 29.05,-0.24 28.86,-0.01 28.66,0.20 28.42,0.37 28.17,0.54 27.89,0.64 27.62,0.75 27.32,0.78 27.03,0.82 25.83,-0.66 24.62,-2.15 24.77,-2.52 24.91,-2.89 25.17,-3.20 25.43,-3.50 25.77,-3.71 26.11,-3.92 26.49,-4.00 26.88,-4.09 27.28,-4.05 27.68,-4.01 28.04,-3.84 28.40,-3.68 28.69,-3.40 28.98,-3.13 29.17,-2.78 29.36,-2.43 29.42,-2.04 29.49,-1.65 29.43,-1.25 29.36,-0.86 29.18,-0.51 29.00,-0.15 28.71,0.11 28.42,0.39 28.06,0.56 27.70,0.72 27.30,0.77 26.91,0.81 26.52,0.73 26.13,0.65 25.79,0.44 25.44,0.24 25.19,-0.05 24.93,-0.35 24.78,-0.72 24.63,-1.09 24.60,-1.49 24.58,-1.89 24.69,-2.27 24.79,-2.66 25.01,-2.99 25.23,-3.32 25.55,-3.56 25.87,-3.80 26.24,-3.93 26.62,-4.06 27.02,-4.06 27.42,-4.06 27.79,-3.94 28.17,-3.81 28.49,-3.57 28.81,-3.33 29.03,-3.01 29.26,-2.68 29.37,-2.29 29.47,-1.91 28.25,-3.00 27.03,-4.09 27.32,-4.06 27.62,-4.02 27.89,-3.92 28.17,-3.81 28.42,-3.64 28.66,-3.48 28.86,-3.25 29.05,-3.03 29.19,-2.77 29.33,-2.51 29.40,-2.22 29.47,-1.93 29.47,-1.63 29.47,-1.34 29.40,-1.05 29.33,-0.76 29.19,-0.50 29.05,-0.24 28.86,-0.01 28.66,0.20 28.42,0.37 28.17,0.54 27.90,0.64 27.62,0.75 27.32,0.78 27.03,0.82 25.73,1.54 24.43,2.27 22.81,2.12 21.18,1.97 20.00,1.89 18.82,1.80 16.59,1.89 14.36,1.98 12.45,2.03 10.53,2.08 8.79,2.09 7.05,2.11 5.17,2.17 3.29,2.22 1.64,2.23 0,2.25 -0.26,2.22 -0.53,2.18 -0.79,2.09 -1.04,1.99 -1.27,1.84 -1.49,1.68 -1.67,1.48 -1.85,1.27 -1.98,1.03 -2.10,0.79 -2.17,0.53 -2.23,0.27 -2.23,-0.00 -2.23,-0.27 -2.17,-0.53 -2.10,-0.79 -1.98,-1.03 -1.85,-1.27 -1.67,-1.48 -1.49,-1.68 -1.27,-1.84 -1.04,-1.99 -0.79,-2.09 -0.53,-2.18 -0.26,-2.22 0.00,-2.25 0.00,-2.25 L 0,-2.25 Z"></path></g></svg>